HIERARCHY
ROOT Hips
{
  OFFSET 52.9116 95.9707 5.10108
  CHANNELS 6 Xposition Yposition Zposition Zrotation Xrotation Yrotation
  JOINT spine
  {
    OFFSET 0 8.13249 0.467659
    CHANNELS 3 Zrotation Xrotation Yrotation
    JOINT spine1
    {
      OFFSET 0 10.3498 0
      CHANNELS 3 Zrotation Xrotation Yrotation
      JOINT spine2
      {
        OFFSET 0 9.91699 0
        CHANNELS 3 Zrotation Xrotation Yrotation
        JOINT Neck
        {
          OFFSET 0 25.461 1.2139
          CHANNELS 3 Zrotation Xrotation Yrotation
          JOINT Head
          {
            OFFSET 0 7.69245 0
            CHANNELS 3 Zrotation Xrotation Yrotation
            End Site
            {
              OFFSET 0 18.62 -6.14063
            }
          }
        }
        JOINT RightShoulder
        {
          OFFSET -4.17575 10.7096 -0.581445
          CHANNELS 3 Zrotation Xrotation Yrotation
          JOINT RightArm
          {
            OFFSET 0 14.0466 0
            CHANNELS 3 Zrotation Xrotation Yrotation
            JOINT RightArmRoll
            {
              OFFSET 0 7.09098 0
              CHANNELS 3 Zrotation Xrotation Yrotation
              JOINT RightForeArm
              {
                OFFSET 0 20.6535 0
                CHANNELS 3 Zrotation Xrotation Yrotation
                JOINT RightForeArmRoll
                {
                  OFFSET 0 7.95718 0
                  CHANNELS 3 Zrotation Xrotation Yrotation
                  JOINT RightHand
                  {
                    OFFSET 0 15.9683 0
                    CHANNELS 3 Zrotation Xrotation Yrotation
                    End Site
                    {
                      OFFSET 0 0 0
                    }
                  }
                }
              }
            }
          }
        }
        JOINT LeftShoulder
        {
          OFFSET 4.17575 10.7096 -0.581445
          CHANNELS 3 Zrotation Xrotation Yrotation
          JOINT LeftArm
          {
            OFFSET 0 14.0466 0
            CHANNELS 3 Zrotation Xrotation Yrotation
            JOINT LeftArmRoll
            {
              OFFSET 0 7.09098 0
              CHANNELS 3 Zrotation Xrotation Yrotation
              JOINT LeftForeArm
              {
                OFFSET 0 20.6535 0
                CHANNELS 3 Zrotation Xrotation Yrotation
                JOINT LeftForeArmRoll
                {
                  OFFSET 0 7.95718 0
                  CHANNELS 3 Zrotation Xrotation Yrotation
                  JOINT LeftHand
                  {
                    OFFSET 0 15.9683 0
                    CHANNELS 3 Zrotation Xrotation Yrotation
                    End Site
                    {
                      OFFSET 0 0 0
                    }
                  }
                }
              }
            }
          }
        }
      }
    }
  }
  JOINT RightUpLeg
  {
    OFFSET -7.20834 -1.32182 -1.10884
    CHANNELS 3 Zrotation Xrotation Yrotation
    JOINT RightUpLegRoll
    {
      OFFSET 0 18.7238 0
      CHANNELS 3 Zrotation Xrotation Yrotation
      JOINT RightLeg
      {
        OFFSET 0 -23.1866 0
        CHANNELS 3 Zrotation Xrotation Yrotation
        JOINT RightLegRoll
        {
          OFFSET 0 23.2624 0
          CHANNELS 3 Zrotation Xrotation Yrotation
          JOINT RightFoot
          {
            OFFSET 0 19.3621 0
            CHANNELS 3 Zrotation Xrotation Yrotation
            JOINT RightToeBase
            {
              OFFSET 0 16.1857 0
              CHANNELS 3 Zrotation Xrotation Yrotation
              End Site
              {
                OFFSET 0.00686052 7.83863 -0.903522
              }
            }
          }
        }
      }
    }
  }
  JOINT LeftUpLeg
  {
    OFFSET 7.20834 -1.32182 -1.10884
    CHANNELS 3 Zrotation Xrotation Yrotation
    JOINT LeftUpLegRoll
    {
      OFFSET 0 18.7239 0
      CHANNELS 3 Zrotation Xrotation Yrotation
      JOINT LeftLeg
      {
        OFFSET 0 23.1865 0
        CHANNELS 3 Zrotation Xrotation Yrotation
        JOINT LeftLegRoll
        {
          OFFSET 0 23.4775 0
          CHANNELS 3 Zrotation Xrotation Yrotation
          JOINT LeftFoot
          {
            OFFSET 0 19.147 0
            CHANNELS 3 Zrotation Xrotation Yrotation
            JOINT LeftToeBase
            {
              OFFSET 0 16.1857 0
              CHANNELS 3 Zrotation Xrotation Yrotation
              End Site
              {
                OFFSET -0.0307459 7.83863 -0.903521
              }
            }
          }
        }
      }
    }
  }
}
MOTION
Frames: 9
Frame Time: 0.00208333
53.0864 95.6412 6.84843 -0.62938 -4.2251 -0.450615 0.359235 -0.568946 0.118631 0.719245 2.84403 0.207598 0.717556 4.48903 0.195577 -1.82137 17.0374 -4.42413 1.59475 0.691302 -4.85373 56.064 -10.0961 -6.27388 116.389 18.7906 13.8376 2.43549e-007 -8.43552e-008 -1.60061e-006 9.36516 3.02762 -0.92894 -6.27722e-006 5.03644e-006 -3 8.029 -4.95147 0.697688 -58.7685 -7.79825 4.83848 -114.036 16.3037 -6.04884 -2.98484e-006 -2.91131e-006 7.19066e-006 -9.3368 0.963342 0.835927 4.92078e-006 -2.37759e-006 3.01228 -8.02901 -4.95145 -0.69767 173.326 2.27387 4.05887 180 7.01593e-015 179.146 177.681 13.3306 179.652 -2.45166e-006 -6.74663e-007 -0.0511769 -15.8423 69.6051 20.8077 8.13534 25.2327 -3.48724 -173.288 0.0329726 -1.73389 4.5067e-006 -1.99009e-005 -0.817448 -1.18206 -14.561 0.60769 1.74172e-006 1.23339e-006 -0.0825369 19.061 73.2091 -24.4424 -8.13237 25.2329 3.48598 
53.0846 95.6451 6.85506 -0.630994 -4.21497 -0.450953 0.35928 -0.56804 0.118627 0.719416 2.84739 0.206691 0.717727 4.49239 0.194675 -1.82641 17.0377 -4.42371 1.60004 0.684863 -4.85421 56.0543 -10.0951 -6.27323 116.389 18.7681 13.8267 2.43549e-007 -8.43552e-008 -1.60061e-006 9.3786 3.06104 -0.933437 -6.27722e-006 5.03644e-006 -3 8.029 -4.95147 0.697688 -58.771 -7.79327 4.83545 -114.029 16.2855 -6.04296 -2.98484e-006 -2.91131e-006 7.19066e-006 -9.34234 0.996651 0.838384 4.92078e-006 -2.37759e-006 3.01228 -8.02901 -4.95145 -0.69767 173.328 2.28836 4.05659 180 7.01593e-015 179.146 177.681 13.3325 179.652 -2.45166e-006 -6.74663e-007 -0.0511769 -15.8368 69.6035 20.8034 8.13534 25.2327 -3.48724 -173.287 0.0493832 -1.7328 4.5067e-006 -1.99009e-005 -0.817453 -1.18107 -14.5658 0.607857 1.74172e-006 1.23339e-006 -0.0822743 19.0563 73.2088 -24.4407 -8.13237 25.2329 3.48598 
53.0891 95.6439 6.84779 -0.632678 -4.20479 -0.451327 0.359307 -0.567228 0.118624 0.719555 2.85061 0.205759 0.717866 4.49561 0.193749 -1.83142 17.0379 -4.42326 1.6054 0.678754 -4.85464 56.045 -10.0941 -6.27254 116.388 18.7459 13.816 2.43549e-007 -8.43553e-008 -1.60061e-006 9.39184 3.09396 -0.937884 -6.27722e-006 5.03644e-006 -3 8.029 -4.95147 0.697688 -58.7734 -7.78834 4.83245 -114.022 16.2673 -6.03726 -2.98484e-006 -2.91131e-006 7.19066e-006 -9.3478 1.02966 0.840821 4.92078e-006 -2.37759e-006 3.01228 -8.02901 -4.95145 -0.69767 173.33 2.30303 4.05425 180 7.01593e-015 179.146 177.682 13.3347 179.652 -2.45166e-006 -6.74663e-007 -0.0511769 -15.8311 69.602 20.799 8.13534 25.2327 -3.48724 -173.287 0.0659699 -1.73147 4.5067e-006 -1.99009e-005 -0.817466 -1.1798 -14.5709 0.608076 1.74172e-006 1.23339e-006 -0.0820151 19.0515 73.2088 -24.4393 -8.13237 25.2329 3.48598 
53.0912 95.6431 6.84013 -0.634411 -4.19459 -0.451727 0.359322 -0.566481 0.118622 0.719671 2.85375 0.20481 0.717983 4.49874 0.192806 -1.83642 17.0381 -4.42279 1.61082 0.672876 -4.85504 56.036 -10.0931 -6.27181 116.388 18.7239 13.8055 2.43549e-007 -8.43552e-008 -1.60061e-006 9.40494 3.12654 -0.942296 -6.27722e-006 5.03644e-006 -3 8.029 -4.95147 0.697688 -58.7759 -7.78343 4.82946 -114.016 16.2491 -6.03168 -2.98484e-006 -2.91131e-006 7.19066e-006 -9.35322 1.06246 0.843242 4.92078e-006 -2.37759e-006 3.01228 -8.02901 -4.95145 -0.69767 173.332 2.31782 4.05187 180 7.01593e-015 179.146 177.683 13.337 179.652 -2.45166e-006 -6.74663e-007 -0.0511769 -15.8254 69.6006 20.7946 8.13534 25.2327 -3.48724 -173.286 0.0826799 -1.72997 4.5067e-006 -1.99009e-005 -0.817484 -1.17834 -14.5762 0.608329 1.74172e-006 1.23339e-006 -0.0817583 19.0468 73.2089 -24.438 -8.13237 25.2329 3.48598 
53.0907 95.6416 6.83788 -0.636171 -4.18436 -0.452141 0.359328 -0.565772 0.11862 0.719776 2.85682 0.20385 0.718087 4.50182 0.191854 -1.84141 17.0383 -4.4223 1.61627 0.667131 -4.85542 56.0272 -10.092 -6.27107 116.387 18.7021 13.7951 2.43549e-007 -8.43552e-008 -1.60061e-006 9.41797 3.15892 -0.946687 -6.27722e-006 5.03644e-006 -3 8.029 -4.95147 0.697688 -58.7783 -7.77853 4.82648 -114.009 16.2309 -6.02618 -2.98484e-006 -2.91131e-006 7.19066e-006 -9.35862 1.09514 0.845656 4.92078e-006 -2.37759e-006 3.01228 -8.02901 -4.95145 -0.69767 173.334 2.33269 4.04947 180 7.01593e-015 179.146 177.683 13.3395 179.651 -2.45166e-006 -6.74663e-007 -0.0511769 -15.8196 69.5993 20.7902 8.13534 25.2327 -3.48724 -173.285 0.0994604 -1.72837 4.5067e-006 -1.99009e-005 -0.817507 -1.17676 -14.5817 0.608604 1.74172e-006 1.23339e-006 -0.081503 19.042 73.2091 -24.4368 -8.13237 25.2329 3.48598 
53.0934 95.6437 6.82241 -0.637938 -4.17413 -0.452559 0.359333 -0.565072 0.118618 0.719877 2.85989 0.202889 0.718188 4.50489 0.190899 -1.8464 17.0385 -4.4218 1.62173 0.661419 -4.85581 56.0185 -10.0909 -6.27032 116.386 18.6803 13.7848 2.43549e-007 -8.43552e-008 -1.60061e-006 9.43097 3.19125 -0.951073 -6.27722e-006 5.03644e-006 -3 8.029 -4.95147 0.697688 -58.7808 -7.77364 4.82351 -114.002 16.2127 -6.02069 -2.98484e-006 -2.91131e-006 7.19066e-006 -9.36401 1.12779 0.848067 4.92078e-006 -2.37759e-006 3.01228 -8.02901 -4.95145 -0.69767 173.336 2.34757 4.04706 180 7.01593e-015 179.146 177.684 13.342 179.651 -2.45166e-006 -6.74663e-007 -0.0511769 -15.8138 69.5979 20.7858 8.13534 25.2327 -3.48724 -173.285 0.116259 -1.72675 4.5067e-006 -1.99009e-005 -0.81753 -1.17515 -14.5871 0.608883 1.74172e-006 1.23339e-006 -0.0812479 19.0373 73.2093 -24.4356 -8.13237 25.2329 3.48598 
53.0941 95.6453 6.82042 -0.639691 -4.16391 -0.45297 0.359342 -0.564353 0.118616 0.719984 2.86298 0.201932 0.718295 4.50798 0.189949 -1.85139 17.0387 -4.42132 1.62717 0.65564 -4.85619 56.0096 -10.0898 -6.26959 116.385 18.6584 13.7744 2.43549e-007 -8.43552e-008 -1.60061e-006 9.44403 3.22368 -0.955471 -6.27722e-006 5.03644e-006 -3 8.029 -4.95147 0.697688 -58.7832 -7.76874 4.82052 -113.995 16.1945 -6.01517 -2.98484e-006 -2.91131e-006 7.19066e-006 -9.36941 1.1605 0.850483 4.92078e-006 -2.37759e-006 3.01228 -8.02901 -4.95145 -0.69767 173.338 2.36242 4.04467 180 7.01593e-015 179.146 177.685 13.3444 179.651 -2.45166e-006 -6.74663e-007 -0.0511769 -15.808 69.5966 20.7815 8.13534 25.2327 -3.48724 -173.284 0.133021 -1.72518 4.5067e-006 -1.99009e-005 -0.817551 -1.1736 -14.5925 0.609152 1.74172e-006 1.23339e-006 -0.0809922 19.0325 73.2094 -24.4343 -8.13237 25.2329 3.48598 
53.0871 95.6432 6.82067 -0.641409 -4.15372 -0.453362 0.35936 -0.563587 0.118613 0.720108 2.86614 0.200987 0.718419 4.51114 0.189011 -1.8564 17.0389 -4.42085 1.63258 0.649697 -4.8566 56.0005 -10.0888 -6.26887 116.385 18.6364 13.7638 2.43549e-007 -8.43552e-008 -1.60061e-006 9.45719 3.25636 -0.959895 -6.27722e-006 5.03644e-006 -3 8.029 -4.95147 0.697688 -58.7857 -7.76383 4.81753 -113.988 16.1763 -6.00956 -2.98484e-006 -2.91131e-006 7.19066e-006 -9.37486 1.19336 0.85291 4.92078e-006 -2.37759e-006 3.01228 -8.02901 -4.95145 -0.69767 173.34 2.37718 4.0423 180 7.01593e-015 179.146 177.685 13.3467 179.651 -2.45166e-006 -6.74663e-007 -0.0511769 -15.8023 69.5952 20.7771 8.13534 25.2327 -3.48724 -173.283 0.149696 -1.72373 4.5067e-006 -1.99009e-005 -0.817568 -1.17219 -14.5978 0.609396 1.74172e-006 1.23339e-006 -0.0807348 19.0278 73.2095 -24.433 -8.13237 25.2329 3.48598 
53.0884 95.649 6.81429 -0.643071 -4.14356 -0.453725 0.359393 -0.562747 0.11861 0.720257 2.8694 0.200063 0.718568 4.5144 0.188092 -1.86142 17.0392 -4.42041 1.63792 0.643489 -4.85705 55.9911 -10.0878 -6.26819 116.385 18.6141 13.7531 2.43549e-007 -8.43552e-008 -1.60061e-006 9.47052 3.28943 -0.964361 -6.27722e-006 5.03644e-006 -3 8.029 -4.95147 0.697688 -58.7881 -7.75888 4.81452 -113.981 16.1581 -6.00382 -2.98484e-006 -2.91131e-006 7.19066e-006 -9.38036 1.22646 0.855355 4.92078e-006 -2.37759e-006 3.01228 -8.02901 -4.95145 -0.69767 173.342 2.39179 4.03999 180 7.01593e-015 179.146 177.686 13.3488 179.651 -2.45166e-006 -6.74663e-007 -0.0511769 -15.7967 69.5936 20.7727 8.13534 25.2327 -3.48724 -173.282 0.16623 -1.72247 4.5067e-006 -1.99009e-005 -0.817578 -1.17101 -14.6028 0.609599 1.74172e-006 1.23339e-006 -0.0804745 19.023 73.2094 -24.4315 -8.13237 25.2329 3.48598 
